<svg width="40" height="39" viewBox="0 0 40 39" fill="none" xmlns="http://www.w3.org/2000/svg">
<path d="M20 0C8.95667 0 0 8.95185 0 19.993C0 28.8265 5.73 36.3206 13.6783 38.9646C14.6767 39.1496 15 38.5298 15 38.0033V34.2813C9.43667 35.4908 8.27833 31.9221 8.27833 31.9221C7.36833 29.6113 6.05667 28.9965 6.05667 28.9965C4.24167 27.7552 6.195 27.7819 6.195 27.7819C8.20333 27.9218 9.26 29.8428 9.26 29.8428C11.0433 32.8984 13.9383 32.0154 15.08 31.5039C15.2583 30.2127 15.7767 29.3297 16.35 28.8315C11.9083 28.3234 7.23833 26.609 7.23833 18.95C7.23833 16.7658 8.02 14.9831 9.29833 13.5836C9.09167 13.0787 8.40667 11.0444 9.49333 8.29208C9.49333 8.29208 11.1733 7.7556 14.995 10.3414C16.59 9.89818 18.3 9.6766 20 9.66827C21.7 9.6766 23.4117 9.89818 25.01 10.3414C28.8283 7.7556 30.505 8.29208 30.505 8.29208C31.5933 11.0461 30.9083 13.0804 30.7017 13.5836C31.985 14.9831 32.76 16.7674 32.76 18.95C32.76 26.629 28.0817 28.32 23.6283 28.8149C24.345 29.4346 25 30.6509 25 32.5169V38.0033C25 38.5348 25.32 39.1596 26.335 38.963C34.2767 36.3156 40 28.8232 40 19.993C40 8.95185 31.045 0 20 0Z" fill="#C69C6D"/>
</svg>
