<svg width="18" height="18" viewBox="0 0 18 18" fill="none" xmlns="http://www.w3.org/2000/svg">
<g clip-path="url(#clip0_285_3495)">
<path d="M9 17.9998C13.9706 17.9998 18 13.9703 18 8.99976C18 4.02919 13.9706 -0.000244141 9 -0.000244141C4.02944 -0.000244141 0 4.02919 0 8.99976C0 13.9703 4.02944 17.9998 9 17.9998Z" fill="#42210B"/>
<path d="M3.13338 9.08183C3.10146 10.6303 4.16802 12.1081 5.63518 12.59C7.01716 13.0543 8.71631 12.707 9.63591 11.5235C10.3073 10.6942 10.4599 9.58864 10.3872 8.55577C9.20371 8.54518 8.02019 8.54871 6.83843 8.55047C6.83651 8.97209 6.83843 9.39211 6.8402 9.81373C7.54883 9.8333 8.25763 9.82432 8.96626 9.8386C8.78738 10.4516 8.37988 11.0221 7.76141 11.2435C6.5673 11.7697 5.04366 11.0823 4.66793 9.82961C4.21438 8.63005 4.95687 7.18246 6.18274 6.83351C6.94288 6.56607 7.72595 6.86721 8.37635 7.26235C8.70588 6.954 9.01423 6.62447 9.31713 6.29141C8.57818 5.6731 7.62857 5.29399 6.65233 5.37726C4.73692 5.40004 3.06071 7.16834 3.13338 9.08183ZM12.6906 7.48712C12.687 7.83975 12.6833 8.19415 12.6816 8.54662C12.3272 8.55015 11.9747 8.55192 11.6221 8.55368V9.60966C11.9747 9.61142 12.3291 9.61319 12.6816 9.61688C12.6851 9.96951 12.6851 10.322 12.6886 10.6764C13.0395 10.6764 13.3921 10.6746 13.7446 10.6764C13.7465 10.322 13.7481 9.96951 13.7518 9.61511L14.8113 9.60982V8.55384C14.4589 8.55208 14.1045 8.55031 13.7518 8.54678C13.7499 8.19415 13.7465 7.83975 13.7446 7.48728L12.6906 7.48712Z" fill="#42210B"/>
<path d="M3.13338 9.08187C3.06071 7.16838 4.73676 5.40008 6.65217 5.37714C7.62841 5.29387 8.57818 5.67298 9.31697 6.29129C9.01391 6.62451 8.70556 6.95388 8.37619 7.26223C7.72579 6.86708 6.94272 6.56595 6.18258 6.83339C4.95655 7.1825 4.21406 8.63009 4.66777 9.82949C5.0435 11.0822 6.56714 11.7696 7.76125 11.2434C8.37956 11.022 8.78722 10.4515 8.9661 9.83847C8.25747 9.82436 7.54867 9.83318 6.84004 9.81361C6.83827 9.39199 6.83651 8.97197 6.83827 8.55035C8.02003 8.54859 9.20355 8.54506 10.3871 8.55565C10.4597 9.58868 10.3073 10.6942 9.63575 11.5233C8.71615 12.7069 7.01716 13.0542 5.63502 12.5899C4.16818 12.1081 3.10146 10.6304 3.13338 9.08187ZM12.6906 7.48716H13.7446C13.7465 7.83979 13.7499 8.19419 13.7518 8.54666C14.1043 8.55019 14.4587 8.55196 14.8113 8.55372V9.60969L13.7518 9.61499C13.7483 9.96939 13.7465 10.3219 13.7446 10.6763C13.3921 10.6745 13.0394 10.6763 12.6886 10.6763C12.6853 10.3219 12.6853 9.96939 12.6816 9.61675C12.3291 9.61306 11.9747 9.61146 11.6221 9.60953V8.55356C11.9747 8.5518 12.3273 8.55003 12.6816 8.5465C12.6833 8.19419 12.6869 7.83979 12.6906 7.48716Z" fill="#C69C6D"/>
</g>
<defs>
<clipPath id="clip0_285_3495">
<rect width="18" height="18" rx="9" fill="white"/>
</clipPath>
</defs>
</svg>
