<svg width="24" height="24" viewBox="0 0 24 24" fill="none" xmlns="http://www.w3.org/2000/svg">
<path fill-rule="evenodd" clip-rule="evenodd" d="M1 4C1 4.55228 1.44772 5 2 5H4.17058L7.2322 11.5789C7.2306 11.5824 7.22901 11.5858 7.22744 11.5893L6.17669 13.9222C5.72306 14.9293 6.17176 16.1135 7.17889 16.5671C7.43709 16.6834 7.71706 16.7435 8.00025 16.7435H18.5021C19.0544 16.7435 19.5021 16.2958 19.5021 15.7435C19.5021 15.1913 19.0544 14.7435 18.5021 14.7435H8.00025L8.66971 13.2572H17.7133L21.939 5.87668C22.2135 5.39739 22.0474 4.7864 21.5681 4.51198C21.0888 4.23757 20.4778 4.40365 20.2034 4.88294L16.5538 11.2572H9.28845L5.44581 3H2C1.44772 3 1 3.44772 1 4ZM11 20C11 21.1046 10.1046 22 9 22C7.89543 22 7 21.1046 7 20C7 18.8954 7.89543 18 9 18C10.1046 18 11 18.8954 11 20ZM17 22C18.1046 22 19 21.1046 19 20C19 18.8954 18.1046 18 17 18C15.8954 18 15 18.8954 15 20C15 21.1046 15.8954 22 17 22Z" fill="#4E4E4E"/>
<mask id="mask0_157_2415" style="mask-type:alpha" maskUnits="userSpaceOnUse" x="1" y="3" width="22" height="19">
<path fill-rule="evenodd" clip-rule="evenodd" d="M1 4C1 4.55228 1.44772 5 2 5H4.17058L7.2322 11.5789C7.2306 11.5824 7.22901 11.5858 7.22744 11.5893L6.17669 13.9222C5.72306 14.9293 6.17176 16.1135 7.17889 16.5671C7.43709 16.6834 7.71706 16.7435 8.00025 16.7435H18.5021C19.0544 16.7435 19.5021 16.2958 19.5021 15.7435C19.5021 15.1913 19.0544 14.7435 18.5021 14.7435H8.00025L8.66971 13.2572H17.7133L21.939 5.87668C22.2135 5.39739 22.0474 4.7864 21.5681 4.51198C21.0888 4.23757 20.4778 4.40365 20.2034 4.88294L16.5538 11.2572H9.28845L5.44581 3H2C1.44772 3 1 3.44772 1 4ZM11 20C11 21.1046 10.1046 22 9 22C7.89543 22 7 21.1046 7 20C7 18.8954 7.89543 18 9 18C10.1046 18 11 18.8954 11 20ZM17 22C18.1046 22 19 21.1046 19 20C19 18.8954 18.1046 18 17 18C15.8954 18 15 18.8954 15 20C15 21.1046 15.8954 22 17 22Z" fill="white"/>
</mask>
<g mask="url(#mask0_157_2415)">
<rect width="24" height="24" fill="#C69C6D"/>
</g>
</svg>
