<svg width="24" height="24" viewBox="0 0 24 24" fill="none" xmlns="http://www.w3.org/2000/svg">
<path fill-rule="evenodd" clip-rule="evenodd" d="M20 10.5V15.5858L21.4142 17C21.7893 17.3751 22 17.8838 22 18.4142V18.5C22 19.3284 21.3284 20 20.5 20H4.5C3.67157 20 3 19.3284 3 18.5V18.4142C3 17.8838 3.21071 17.3751 3.58579 17L5 15.5858V10.5C5 7.27911 7.04753 4.47485 10.0009 3.43282C10.0364 2.08168 11.1402 1 12.5 1C13.8598 1 14.9636 2.08168 14.9991 3.43282C17.9525 4.47485 20 7.27911 20 10.5ZM10.5 21C10.5 22.1 11.4 23 12.5 23C13.6 23 14.5 22.1 14.5 21H10.5ZM18 10.5V16.4142L19.5858 18H5.41421L7 16.4142V10.5C7 7.93924 8.76632 5.73692 11.2306 5.15306L12 4.97075V3.5C12 3.22228 12.2223 3 12.5 3C12.7777 3 13 3.22228 13 3.5V4.97075L13.7694 5.15306C16.2337 5.73692 18 7.93924 18 10.5Z" fill="#4E4E4E"/>
<mask id="mask0_157_2401" style="mask-type:alpha" maskUnits="userSpaceOnUse" x="3" y="1" width="19" height="22">
<path fill-rule="evenodd" clip-rule="evenodd" d="M20 10.5V15.5858L21.4142 17C21.7893 17.3751 22 17.8838 22 18.4142V18.5C22 19.3284 21.3284 20 20.5 20H4.5C3.67157 20 3 19.3284 3 18.5V18.4142C3 17.8838 3.21071 17.3751 3.58579 17L5 15.5858V10.5C5 7.27911 7.04753 4.47485 10.0009 3.43282C10.0364 2.08168 11.1402 1 12.5 1C13.8598 1 14.9636 2.08168 14.9991 3.43282C17.9525 4.47485 20 7.27911 20 10.5ZM10.5 21C10.5 22.1 11.4 23 12.5 23C13.6 23 14.5 22.1 14.5 21H10.5ZM18 10.5V16.4142L19.5858 18H5.41421L7 16.4142V10.5C7 7.93924 8.76632 5.73692 11.2306 5.15306L12 4.97075V3.5C12 3.22228 12.2223 3 12.5 3C12.7777 3 13 3.22228 13 3.5V4.97075L13.7694 5.15306C16.2337 5.73692 18 7.93924 18 10.5Z" fill="white"/>
</mask>
<g mask="url(#mask0_157_2401)">
<rect width="24" height="24" fill="#C69C6D"/>
</g>
</svg>
